HIERARCHY
ROOT joint_Root
{
	OFFSET 0.0 0.0 0.0
	CHANNELS 6 Xposition Yposition Zposition Zrotation Xrotation Yrotation 
	JOINT Hips
	{
		OFFSET 4.5925 91.4895 -427.239
		CHANNELS 6 Xposition Yposition Zposition Zrotation Xrotation Yrotation 
		JOINT Spine
		{
			OFFSET 15.7357 0.0 0.0
			CHANNELS 6 Xposition Yposition Zposition Zrotation Xrotation Yrotation 
			JOINT Chest
			{
				OFFSET 8.98455 -0.406207 0.0
				CHANNELS 6 Xposition Yposition Zposition Zrotation Xrotation Yrotation 
				JOINT Neck
				{
					OFFSET 16.3773 0.0 0.0
					CHANNELS 6 Xposition Yposition Zposition Zrotation Xrotation Yrotation 
					JOINT Head
					{
						OFFSET 6.45672 0.0 0.0
						CHANNELS 6 Xposition Yposition Zposition Zrotation Xrotation Yrotation 
						End Site
						{
							OFFSET 0.0 0.0 0.0
						}
					}
				}
				JOINT Shoulder_L
				{
					OFFSET 12.9942 -0.242716 4.98039
					CHANNELS 6 Xposition Yposition Zposition Zrotation Xrotation Yrotation 
					JOINT UpperArm_L
					{
						OFFSET 5.34809 0.0 0.0
						CHANNELS 6 Xposition Yposition Zposition Zrotation Xrotation Yrotation 
						JOINT LowerArm_L
						{
							OFFSET 24.3286 1.87007e-05 0.0
							CHANNELS 6 Xposition Yposition Zposition Zrotation Xrotation Yrotation 
							JOINT Hand_L
							{
								OFFSET 22.2916 0.0 0.0
								CHANNELS 6 Xposition Yposition Zposition Zrotation Xrotation Yrotation 
								End Site
								{
									OFFSET 0.0 0.0 0.0
								}
							}
						}
					}
				}
				JOINT Shoulder_R
				{
					OFFSET 12.9945 -0.242716 -4.98039
					CHANNELS 6 Xposition Yposition Zposition Zrotation Xrotation Yrotation 
					JOINT UpperArm_R
					{
						OFFSET -5.34813 0.0 0.0
						CHANNELS 6 Xposition Yposition Zposition Zrotation Xrotation Yrotation 
						JOINT LowerArm_R
						{
							OFFSET -24.3289 0.000322201 0.0
							CHANNELS 6 Xposition Yposition Zposition Zrotation Xrotation Yrotation 
							JOINT Hand_R
							{
								OFFSET -22.2915 -0.000108084 0.0
								CHANNELS 6 Xposition Yposition Zposition Zrotation Xrotation Yrotation 
								End Site
								{
									OFFSET 0.0 0.0 0.0
								}
							}
						}
					}
				}
			}
		}
		JOINT UpperLeg_L
		{
			OFFSET -2.19248 -6.46944 0.0
			CHANNELS 6 Xposition Yposition Zposition Zrotation Xrotation Yrotation 
			JOINT LowerLeg_L
			{
				OFFSET 39.0811 0.0 -1.23785e-05
				CHANNELS 6 Xposition Yposition Zposition Zrotation Xrotation Yrotation 
				JOINT Foot_L
				{
					OFFSET 40.9854 0.0 -1.26872e-05
					CHANNELS 6 Xposition Yposition Zposition Zrotation Xrotation Yrotation 
					JOINT Toes_L
					{
						OFFSET 11.7543 0.0 0.0
						CHANNELS 6 Xposition Yposition Zposition Zrotation Xrotation Yrotation 
						End Site
						{
							OFFSET 0.0 0.0 0.0
						}
					}
				}
			}
		}
		JOINT UpperLeg_R
		{
			OFFSET -2.19251 6.46944 0.0
			CHANNELS 6 Xposition Yposition Zposition Zrotation Xrotation Yrotation 
			JOINT LowerLeg_R
			{
				OFFSET -39.0811 -0.00228153 -0.0401928
				CHANNELS 6 Xposition Yposition Zposition Zrotation Xrotation Yrotation 
				JOINT Foot_R
				{
					OFFSET -40.9854 0.0 0.0
					CHANNELS 6 Xposition Yposition Zposition Zrotation Xrotation Yrotation 
					JOINT Toes_R
					{
						OFFSET -11.7543 0.0 0.0
						CHANNELS 6 Xposition Yposition Zposition Zrotation Xrotation Yrotation 
						End Site
						{
							OFFSET 0.0 0.0 0.0
						}
					}
				}
			}
		}
	}
}
MOTION
Frames:	7
Frame Time:	0.0333333
0.000000 0.000000 0.000000 0.000000 0.000000 -0.000000 3.989880 85.339300 -3.186260 88.644000 -17.357700 4.682480 15.735700 0.000005 -0.000001 99.782100 81.012300 -100.012000 8.984550 -0.406207 -0.000000 9.964420 3.030550 -0.723644 16.377300 -0.000001 -0.000001 -1.819200 -0.401238 1.981020 6.456720 -0.000001 -0.000000 -5.810680 -1.483410 3.966430 12.994200 -0.242716 4.980390 -91.920800 5.963600 -72.112500 5.348090 -0.000007 -0.000001 -66.021100 34.302600 -8.562900 24.328600 0.000019 0.000005 8.318750 24.869300 -19.187400 22.291600 -0.000001 0.000005 1.539490 5.247260 1.465260 12.994500 -0.242716 -4.980390 88.950000 9.200210 -83.459900 -5.348130 -0.000001 -0.000004 -55.422800 38.215600 -25.369600 -24.328900 0.000322 -0.000009 0.955429 2.497560 -21.012300 -22.291500 -0.000108 -0.000004 16.724500 5.407530 -3.185760 -2.192480 -6.469440 -0.000000 -177.537000 -20.865800 -17.590300 39.081100 -0.000007 -0.000012 -0.473782 0.350993 53.468800 40.985400 -0.000006 -0.000013 0.561097 -2.701240 -81.098400 11.754300 -0.000000 0.000003 -0.000433 -0.003532 -16.707400 -2.192510 6.469440 -0.000001 177.390000 -0.142754 158.750000 -39.081100 -0.002282 -0.040193 0.025157 -0.016237 53.474700 -40.985400 0.000008 0.000006 4.398820 6.508670 -77.630600 -11.754300 -0.000006 -0.000006 -0.678603 -0.835538 -16.884500
0.000000 0.000000 0.000000 0.000000 0.000000 -0.000000 4.528260 86.779000 -2.493540 89.037800 -19.095300 5.011890 15.735700 0.000005 -0.000001 95.067800 81.644500 -94.764000 8.984550 -0.406207 -0.000000 8.878040 1.471560 0.492814 16.377300 -0.000001 -0.000001 -0.346012 -0.021722 1.893860 6.456720 -0.000001 -0.000000 -4.007440 0.221625 2.574390 12.994200 -0.242716 4.980390 -91.280300 4.013440 -72.289200 5.348090 -0.000007 -0.000001 -63.171300 31.688700 -13.357900 24.328600 0.000019 0.000005 11.436800 32.246700 -20.767400 22.291600 -0.000001 0.000005 -4.949820 5.358490 -1.636170 12.994500 -0.242716 -4.980390 88.858300 8.203240 -82.048200 -5.348130 -0.000001 -0.000004 -59.116300 36.269100 -24.898800 -24.328900 0.000322 -0.000009 2.179020 6.316740 -19.085800 -22.291500 -0.000108 -0.000004 16.800900 5.335860 -0.955977 -2.192480 -6.469440 -0.000000 -178.154000 -21.750700 -14.166300 39.081100 -0.000007 -0.000012 -0.416508 0.371755 48.250400 40.985400 -0.000006 -0.000013 0.578748 -3.540590 -79.180500 11.754300 -0.000000 0.000003 -0.000425 -0.003477 -16.705500 -2.192510 6.469440 -0.000001 176.423000 0.263171 161.444000 -39.081100 -0.002282 -0.040193 0.017763 -0.012704 48.798300 -40.985400 0.000008 0.000006 4.446630 8.817350 -75.377700 -11.754300 -0.000006 -0.000006 -0.671499 -0.824636 -17.174500
0.000000 0.000000 0.000000 0.000000 0.000000 -0.000000 4.772160 88.543900 -1.862420 88.951600 -19.089100 4.854110 15.735700 0.000005 -0.000001 90.323100 82.592900 -89.304800 8.984550 -0.406207 -0.000000 7.048120 0.076878 2.029650 16.377300 -0.000001 -0.000001 2.650220 -0.118066 1.568380 6.456720 -0.000001 -0.000000 -2.077520 0.396539 2.034290 12.994200 -0.242716 4.980390 -90.929100 2.704590 -71.031700 5.348090 -0.000007 -0.000001 -55.306100 22.484700 -23.252100 24.328600 0.000019 0.000005 9.074070 20.591000 -24.444500 22.291600 -0.000001 0.000005 2.172990 5.271930 0.838792 12.994500 -0.242716 -4.980390 88.651800 7.476520 -79.746300 -5.348130 -0.000001 -0.000004 -62.506700 34.176900 -21.542500 -24.328900 0.000322 -0.000009 1.834330 4.919040 -20.500200 -22.291500 -0.000108 -0.000004 15.909400 5.351580 -1.434980 -2.192480 -6.469440 -0.000000 -178.455000 -20.724000 -10.553100 39.081100 -0.000007 -0.000012 -0.323060 0.365901 41.442500 40.985400 -0.000006 -0.000013 0.527710 -4.352340 -76.230100 11.754300 -0.000000 0.000003 -0.000372 -0.003110 -16.692600 -2.192510 6.469440 -0.000001 176.126000 1.760520 165.052000 -39.081100 -0.002282 -0.040193 0.015207 -0.013163 42.198300 -40.985400 0.000008 0.000006 4.119110 10.322700 -72.331500 -11.754300 -0.000006 -0.000006 -0.378588 -0.469518 -17.604000
0.000000 0.000000 0.000000 0.000000 0.000000 -0.000000 4.746880 89.977700 -1.303500 88.571900 -17.463700 4.704580 15.735700 0.000005 -0.000001 86.038300 83.514400 -84.333500 8.984550 -0.406207 -0.000000 5.190800 -0.932524 3.447980 16.377300 -0.000001 -0.000001 5.970970 -1.465500 1.791380 6.456720 -0.000001 -0.000000 0.430518 -0.436971 2.102090 12.994200 -0.242716 4.980390 -90.405300 1.212940 -71.533600 5.348090 -0.000007 -0.000001 -49.899800 6.976490 -35.132000 24.328600 0.000019 0.000005 9.314710 14.575400 -33.099400 22.291600 -0.000001 0.000005 9.871050 5.300290 0.082136 12.994500 -0.242716 -4.980390 88.614000 6.442790 -77.830600 -5.348130 -0.000001 -0.000004 -64.367800 32.805500 -16.316300 -24.328900 0.000322 -0.000009 0.223144 0.484402 -25.087600 -22.291500 -0.000108 -0.000004 13.916800 5.408920 -3.247690 -2.192480 -6.469440 -0.000000 -178.354000 -18.427700 -7.260150 39.081100 -0.000007 -0.000012 -0.242661 0.343750 35.219500 40.985400 -0.000006 -0.000013 0.540462 -4.755690 -73.399200 11.754300 -0.000000 0.000003 -0.000283 -0.002475 -16.669900 -2.192510 6.469440 -0.000001 176.208000 3.949860 169.112000 -39.081100 -0.002282 -0.040193 0.014075 -0.015093 35.549700 -40.985400 0.000008 0.000006 3.654120 11.054700 -69.869200 -11.754300 -0.000006 -0.000006 -0.002272 -0.032076 -17.877400
0.000000 0.000000 0.000000 0.000000 0.000000 -0.000000 4.500430 90.780700 -1.014900 87.941900 -15.778100 4.139760 15.735700 0.000005 -0.000001 80.088100 84.087800 -77.928400 8.984550 -0.406207 -0.000000 3.927420 -2.104770 4.387060 16.377300 -0.000001 -0.000001 7.904260 -2.500960 2.619010 6.456720 -0.000001 -0.000000 2.245510 -1.333280 2.371350 12.994200 -0.242716 4.980390 -89.601600 -1.324690 -73.236600 5.348090 -0.000007 -0.000001 -45.626400 -9.329240 -48.437400 24.328600 0.000019 0.000005 9.597040 10.797200 -42.081600 22.291600 -0.000001 0.000005 18.030600 5.333690 -0.872600 12.994500 -0.242716 -4.980390 88.637900 5.835400 -76.837300 -5.348130 -0.000001 -0.000004 -63.460400 33.455400 -13.333600 -24.328900 0.000322 -0.000009 -1.237520 -2.152100 -29.879000 -22.291500 -0.000108 -0.000004 12.493800 5.442140 -4.361210 -2.192480 -6.469440 -0.000000 -177.858000 -16.496300 -5.756130 39.081100 -0.000007 -0.000012 -0.198822 0.323803 31.551100 40.985400 -0.000006 -0.000013 0.500388 -4.664960 -71.641300 11.754300 -0.000000 0.000003 -0.000247 -0.002213 -16.660500 -2.192510 6.469440 -0.000001 176.686000 6.902720 171.850000 -39.081100 -0.002282 -0.040193 0.014214 -0.018437 30.622800 -40.985400 0.000008 0.000006 3.720880 12.214200 -68.617300 -11.754300 -0.000006 -0.000006 -0.002898 -0.039445 -18.177200
0.000000 0.000000 0.000000 0.000000 0.000000 -0.000000 4.527380 91.099100 -0.809968 87.494700 -15.786000 3.669840 15.735700 0.000005 -0.000001 74.936900 84.308300 -72.520400 8.984550 -0.406207 -0.000000 3.299180 -3.049150 4.916570 16.377300 -0.000001 -0.000001 8.556430 -2.964270 3.095870 6.456720 -0.000001 -0.000000 2.889700 -1.532730 2.936330 12.994200 -0.242716 4.980390 -88.790700 -4.378730 -74.543400 5.348090 -0.000007 -0.000001 -45.026000 -27.572000 -61.595700 24.328600 0.000019 0.000005 10.622400 9.525990 -48.569200 22.291600 -0.000001 0.000005 20.626700 5.366230 -1.874540 12.994500 -0.242716 -4.980390 88.461200 6.234060 -76.105300 -5.348130 -0.000001 -0.000004 -59.349500 36.392400 -13.226100 -24.328900 0.000322 -0.000009 -0.885921 -1.335280 -33.560500 -22.291500 -0.000108 -0.000004 13.782900 5.447750 -4.560270 -2.192480 -6.469440 -0.000000 -177.629000 -15.895300 -5.219780 39.081100 -0.000007 -0.000012 -0.180326 0.312417 29.993700 40.985400 -0.000006 -0.000013 0.433725 -5.086810 -71.003400 11.754300 -0.000000 0.000003 -0.000246 -0.002204 -16.660200 -2.192510 6.469440 -0.000001 176.416000 10.863300 173.186000 -39.081100 -0.002282 -0.040193 -0.032372 0.067693 27.792200 -40.985400 0.000008 0.000006 3.054800 16.352000 -67.673800 -11.754300 -0.000006 -0.000006 -0.002969 -0.040252 -18.210100
0.000000 0.000000 0.000000 0.000000 0.000000 -0.000000 4.784070 91.212300 -0.600246 87.234600 -18.643400 2.976620 15.735700 0.000005 -0.000001 71.661100 84.455400 -69.065400 8.984550 -0.406207 -0.000000 2.851660 -3.596990 5.277080 16.377300 -0.000001 -0.000001 8.654140 -1.649360 2.229610 6.456720 -0.000001 -0.000000 3.146940 -1.078450 3.946190 12.994200 -0.242716 4.980390 -87.688100 -7.494820 -72.808800 5.348090 -0.000007 -0.000001 -43.496900 -41.809300 -72.056300 24.328600 0.000019 0.000005 8.910450 7.725860 -49.386600 22.291600 -0.000001 0.000005 29.606500 5.396430 -2.778970 12.994500 -0.242716 -4.980390 88.240300 7.490300 -76.737600 -5.348130 -0.000001 -0.000004 -53.787200 38.952600 -15.162500 -24.328900 0.000322 -0.000009 0.747861 1.068420 -35.027800 -22.291500 -0.000108 -0.000004 15.718100 5.446050 -4.500310 -2.192480 -6.469440 -0.000000 -177.621000 -17.981600 -5.045140 39.081100 -0.000007 -0.000012 -0.167538 0.299949 29.186000 40.985400 -0.000006 -0.000013 0.357930 -5.822630 -70.958900 11.754300 -0.000000 0.000003 -0.000247 -0.002211 -16.660400 -2.192510 6.469440 -0.000001 176.101000 12.176900 172.938000 -39.081100 -0.002282 -0.040193 -0.088702 0.185154 26.424900 -40.985400 0.000008 0.000006 1.633570 20.751900 -66.224400 -11.754300 -0.000006 -0.000006 -0.002568 -0.035609 -18.021100
